<svg version="1.1" viewBox="0.0 0.0 960.0 720.0" fill="none" stroke="none" stroke-linecap="square" stroke-miterlimit="10" xmlns:xlink="http://www.w3.org/1999/xlink" xmlns="http://www.w3.org/2000/svg"><clipPath id="p.0"><path d="m0 0l960.0 0l0 720.0l-960.0 0l0 -720.0z" clip-rule="nonzero"/></clipPath><g clip-path="url(#p.0)"><path fill="#000000" fill-opacity="0.0" d="m0 0l960.0 0l0 720.0l-960.0 0z" fill-rule="evenodd"/><path fill="#000000" fill-opacity="0.0" d="m288.937 195.42783l314.96063 0l0 135.74802l-314.96063 0z" fill-rule="evenodd"/><path fill="#ffffff" d="m297.937 204.42783l126.234375 0l0 115.19998l-126.234375 0l0 -115.19998z" fill-rule="nonzero"/><path fill="#000000" fill-opacity="0.0" d="m297.937 209.68156l126.234375 0l0 110.39064l-126.234375 0l0 -110.39064z" fill-rule="nonzero"/><path fill="#202124" d="m316.312 296.58783l-14.15625 0l14.390625 -68.718765l30.515625 0q7.875 0 12.25 1.625q4.390625 1.609375 7.078125 5.921875q2.703125 4.3125 2.703125 10.453125q0 8.765625 -5.25 14.468765q-5.25 5.6875 -15.890625 7.046875q2.71875 2.4375 5.109375 6.421875q4.734375 8.0625 10.546875 22.78125l-15.1875 0q-1.828125 -5.8125 -7.171875 -18.140625q-2.90625 -6.65625 -6.1875 -8.953125q-2.015625 -1.359375 -7.03125 -1.359375l-5.765625 0l-5.953125 28.453125zm8.109375 -38.765625l7.5 0q11.390625 0 15.109375 -1.359375q3.734375 -1.3593903 5.84375 -4.2656403q2.109375 -2.90625 2.109375 -6.09375q0 -3.75 -3.046875 -5.625q-1.875 -1.125 -8.109375 -1.125l-15.5625 0l-3.84375 18.468765zm74.953125 38.765625l-14.15625 0l12.0 -57.23439l-20.15625 0l2.390625 -11.484375l54.140625 0l-2.390625 11.484375l-19.875 0l-11.953125 57.23439z" fill-rule="nonzero"/></g></svg>